<?xml version="1.0" encoding="utf-8"?>
<!-- Generator: Adobe Illustrator 27.2.0, SVG Export Plug-In . SVG Version: 6.00 Build 0)  -->
<svg version="1.1" id="Ebene_1" xmlns="http://www.w3.org/2000/svg" xmlns:xlink="http://www.w3.org/1999/xlink" x="0px" y="0px"
	 viewBox="0 0 440.7 485" style="enable-background:new 0 0 440.7 485;" xml:space="preserve">
<style type="text/css">
	.st0{fill:none;stroke:#FFFFFF;stroke-width:2.5;stroke-miterlimit:10;}
	.st1{fill:#6CBF55;}
	.st2{fill:#FFFFFF;}
</style>
<path class="st0" d="M392.7,161.5h-17.5c-2.5,0-4.5,1.9-4.5,4.1v9.2c0,3.4-4.4,5.3-7.3,3.2l-21.6-15.6c-0.8-0.6-1.8-0.9-2.8-0.9
	H224.3c-2.5,0-4.5-1.9-4.5-4.1V49c0-2.3,2.1-4.1,4.5-4.1h168.4c2.5,0,4.5,1.9,4.5,4.1v108.4C397.2,159.7,395.2,161.5,392.7,161.5z"
	/>
<g>
	<path class="st1" d="M271,331.1l-11.8-12.9c-17.5,11.7-34.9,17.5-52.2,17.5c-17.1,0-31.7-5.8-43.8-17.3
		c-12.1-11.6-18.1-25.9-18.1-43.1c0-13.4,4.6-25.2,13.9-35.5c8.6-9.6,19.6-16.4,33.2-20.3c-9.6-14.4-14.4-27.3-14.4-38.8
		c0-11.1,4.4-20.8,13.1-29c7.9-7.4,17.9-11.1,30.1-11.1c12.9,0,23.2,3.1,31.1,9.3c8.7,6.7,13.1,16.3,13.1,28.8
		c0,10.6-4.5,20.3-13.4,29c-7.7,7.5-17.2,13-28.5,16.4l45.7,67.1c8.4-10.3,12.8-25.4,13.1-45.2l-13.1-1.5l-1.5-12.6h45.7l-1.5,12.6
		l-12.3,1.5c-2.1,19.7-9.5,38-22.4,55l14.4,16.2l12.6,1.5l1.5,12.3H271V331.1z M251.7,308.5l-53.9-78.1
		c-18.7,7.7-28.1,20.5-28.1,38.3c0,14.1,5.1,26.1,15.2,36.2c9.3,9.3,21.1,13.9,35.3,13.9C232.3,318.8,242.7,315.4,251.7,308.5z
		 M216,211.9l0.8,1.5c16.8-8.1,25.2-20.7,25.2-38c0-14.9-6.3-22.4-19-22.4c-6,0-10.9,2.3-14.8,6.8c-3.9,4.5-5.8,9.9-5.8,16.1
		c0,5.5,1.5,11.7,4.6,18.5C210,200.2,213,206.1,216,211.9z"/>
</g>
<g>
	<path class="st1" d="M271,331.1l-11.8-12.9c-17.5,11.7-34.9,17.5-52.2,17.5c-17.1,0-31.7-5.8-43.8-17.3
		c-12.1-11.6-18.1-25.9-18.1-43.1c0-13.4,4.6-25.2,13.9-35.5c8.6-9.6,19.6-16.4,33.2-20.3c-9.6-14.4-14.4-27.3-14.4-38.8
		c0-11.1,4.4-20.8,13.1-29c7.9-7.4,17.9-11.1,30.1-11.1c12.9,0,23.2,3.1,31.1,9.3c8.7,6.7,13.1,16.3,13.1,28.8
		c0,10.6-4.5,20.3-13.4,29c-7.7,7.5-17.2,13-28.5,16.4l45.7,67.1c8.4-10.3,12.8-25.4,13.1-45.2l-13.1-1.5l-1.5-12.6h45.7l-1.5,12.6
		l-12.3,1.5c-2.1,19.7-9.5,38-22.4,55l14.4,16.2l12.6,1.5l1.5,12.3H271V331.1z M251.7,308.5l-53.9-78.1
		c-18.7,7.7-28.1,20.5-28.1,38.3c0,14.1,5.1,26.1,15.2,36.2c9.3,9.3,21.1,13.9,35.3,13.9C232.3,318.8,242.7,315.4,251.7,308.5z
		 M216,211.9l0.8,1.5c16.8-8.1,25.2-20.7,25.2-38c0-14.9-6.3-22.4-19-22.4c-6,0-10.9,2.3-14.8,6.8c-3.9,4.5-5.8,9.9-5.8,16.1
		c0,5.5,1.5,11.7,4.6,18.5C210,200.2,213,206.1,216,211.9z"/>
</g>
<path class="st0" d="M152,385.4h-16c-2.3,0-4.1,1.9-4.1,4.1v9.3c0,3.5-4,5.4-6.7,3.2l-19.7-15.7c-0.7-0.6-1.6-0.9-2.6-0.9H30.7
	c-2.3,0-4.1-1.9-4.1-4.1V271.8c0-2.3,1.9-4.1,4.1-4.1H152c2.3,0,4.1,1.9,4.1,4.1v109.4C156.1,383.5,154.3,385.4,152,385.4z"/>
<g>
	<g>
		<path class="st0" d="M422.2,219.8l-33.9,61c-16.2,29.1-40.1,46.7-53.4,39.3l0,0c-13.3-7.4-11-37,5.2-66.1l33.9-61L422.2,219.8z"/>
		<path class="st0" d="M358,222.3c0,0,7.8,15.3,20.5,15.3s20.6-1.8,30.9,5.6"/>
		<g>
			<line class="st0" x1="335" y1="320" x2="294.8" y2="392.4"/>
			<line class="st0" x1="268.5" y1="377.8" x2="321" y2="407"/>
		</g>
	</g>
	<circle class="st2" cx="360.8" cy="250.6" r="3"/>
	<circle class="st2" cx="358.6" cy="293.8" r="3.4"/>
	<circle class="st2" cx="371.7" cy="267.4" r="2.3"/>
	<circle class="st2" cx="352.5" cy="273.5" r="1.9"/>
	<circle class="st2" cx="388.3" cy="249.9" r="3.8"/>
	<circle class="st2" cx="339.9" cy="306.4" r="3"/>
</g>
<g>
	<g>
		<g transform="translate(123.979748, 87.922602)">
			<g>
				<path class="st2" d="M-75.5-42.9v22.2l0.6,9l4.2,0.6l0.6,4.8h-20.3l0.6-4.8l4.2-0.6l0.6-9V-64l-0.6-9l-4.2-0.6l-0.6-4.8h20.3
					l-0.6,4.8l-4.2,0.6l-0.6,9V-42.9L-49.6-73l-4.8-0.6l-0.6-4.8h16.7l-0.6,4.8l-3,0.6L-51-63l-15.4,17.9l30.2,33.4l3.6,0.6l0.6,4.8
					h-20.5l0.6-4.8l3.6-0.6L-75.5-42.9z"/>
			</g>
		</g>
	</g>
	<g>
		<g transform="translate(175.687111, 87.922602)">
			<g>
				<path class="st2" d="M-60.6-64.5v43.8l0.6,9l4.2,0.6l0.6,4.8h-18.1l0.6-4.8l4.2-0.6l0.6-9V-64l-0.6-9l-4.2-0.6l-0.6-4.8h17.2
					l20.2,53l21-53h14.7l-0.6,4.8L-5-73l-0.6,9v43.3l0.6,9l4.2,0.6l0.6,4.8h-19.7l0.6-4.8l4.2-0.6l0.6-9v-43.8h-0.2l-20.8,52.8h-4.8
					l-20.1-52.8H-60.6z"/>
			</g>
		</g>
	</g>
	<g>
		<g transform="translate(240.564515, 87.922602)">
			<g>
				<path class="st2" d="M-47.7-34.4V-64l-0.6-9l-4.2-0.6l-0.6-4.8h20.3l-0.6,4.8l-4.2,0.6l-0.6,9v27.6c0,8.4,0.6,14.1,1.7,17.2
					c1.1,3.1,3.1,5.5,6,7.3s6,2.6,9.5,2.6c6.7,0,11.5-2.4,14.3-7.2c1.3-2.2,2.2-5.1,2.5-8.7c0.1-1.5,0.2-4.6,0.2-9.2V-64l-0.6-9
					l-4.2-0.6l-0.6-4.8H8.7l-0.6,4.8L4-73l-0.6,9v27.1c0,5.8-0.1,9.6-0.3,11.5c-0.5,4.2-1.8,7.8-3.7,10.9
					c-4.3,6.6-11.3,9.9-21.1,9.9c-9.4,0-16.3-2.7-20.7-8.2C-46-17.1-47.7-24.3-47.7-34.4z"/>
			</g>
		</g>
	</g>
</g>
<g>
	<g>
		<g transform="translate(129.511638, 352.838371)">
			<g>
				<path class="st2" d="M-74,113.9l0.5-10l4,0.5l0.5,4c4.2,2.8,8,4.2,11.3,4.2c3.5,0,6.4-1,8.7-3.1s3.5-4.8,3.5-8.1
					c0-3.4-1.2-6.2-3.6-8.4c-1.2-1.1-3.9-2.8-7.9-5.1c-5.2-3-8.8-5.3-10.7-7C-71.2,77.6-73,74-73,69.8c0-4.4,1.7-8.1,5-11.3
					c3.1-3,7.2-4.5,12.2-4.5s10.1,0.8,15.2,2.5l-0.5,9.3l-4-0.5l-0.5-4.1c-3.5-2.1-7-3.2-10.3-3.2c-2.6,0-4.9,1-6.7,3
					c-1.8,2-2.7,4.3-2.7,7c0,2.9,1.1,5.3,3.3,7.4c1.2,1.2,3.5,2.7,7,4.7c2.6,1.5,6.3,3.8,11.1,6.9c4.1,3.2,6.2,7.4,6.2,12.5
					c0,5.2-2,9.4-5.9,12.6c-3.7,3-8.2,4.5-13.5,4.5C-61.7,116.6-67.3,115.7-74,113.9z"/>
			</g>
		</g>
	</g>
	<g>
		<g transform="translate(170.967325, 352.838371)">
			<g>
				<path class="st2" d="M-57,77.5l-0.5,2.1h0.5c3.9-6.1,9.1-9.2,15.5-9.2c5.6,0,9.8,2.3,12.6,7c2.4,3.9,3.6,8.8,3.6,14.7
					c0,6.5-1.4,11.9-4.2,16.3c-3.3,5.2-8,7.8-14.2,7.8c-5.3,0-9.8-2-13.2-5.9h-0.5l1,16.4l3.5,0.5l0.5,4h-16.9l0.5-4l3.5-0.5
					l0.5-7.4V82.8l-0.5-6.9l-3.5-0.5l-0.5-4l12.4-0.5L-57,77.5L-57,77.5z M-57,83.5v22.2c3.7,3.3,7.8,5,12.3,5c3.9,0,6.8-2,8.7-5.9
					c1.5-3,2.2-6.7,2.2-11.1c0-11.6-3.5-17.4-10.6-17.4C-49.2,76.3-53.5,78.7-57,83.5z"/>
			</g>
		</g>
	</g>
	<g>
		<g transform="translate(220.803948, 352.838371)">
			<g>
				<path class="st2" d="M-43.8,70.4c6.7,0,12,2.2,15.7,6.5c3.5,4.1,5.2,9.5,5.2,16.4c0,6.8-1.7,12.3-5.2,16.4
					c-3.7,4.4-9,6.5-15.7,6.5s-11.9-2.2-15.6-6.5c-3.5-4.1-5.3-9.5-5.3-16.4c0-6.8,1.8-12.3,5.3-16.4
					C-55.6,72.5-50.4,70.4-43.8,70.4z M-43.8,74.3c-4.2,0-7.4,2.2-9.7,6.6c-1.9,3.6-2.8,7.7-2.8,12.3c0,4.6,0.9,8.7,2.8,12.3
					c2.3,4.4,5.5,6.6,9.7,6.6s7.4-2.2,9.8-6.6c1.8-3.6,2.7-7.7,2.7-12.3c0-4.6-0.9-8.7-2.7-12.3C-36.3,76.5-39.6,74.3-43.8,74.3z"/>
			</g>
		</g>
	</g>
	<g>
		<g transform="translate(267.722206, 352.838371)">
			<g>
				<path class="st2" d="M-54.2,100.4V75.8h-5.5v-4.5h5.5v-8l7.9-2v10h11.2v4.5h-11.2v25.7c0,3.1,0.4,5.4,1.1,6.9
					c1.1,2.2,2.8,3.3,5.2,3.3c1.4,0,3.1-0.4,4.9-1.2v4.5c-1.8,0.8-3.9,1.2-6.2,1.2c-4.6,0-8-1.5-10.4-4.4c-1.2-1.4-1.9-3.2-2.2-5.4
					C-54.2,105.3-54.2,103.3-54.2,100.4z"/>
			</g>
		</g>
	</g>
	<g>
		<g transform="translate(297.953436, 352.838371)">
			<g>
				<path class="st2" d="M-43.7,62.8v40.4l0.5,7.4l3.5,0.5l0.5,4h-16.9l0.5-4l3.5-0.5l0.5-7.4V62.8l-0.5-6.9l-3.5-0.5l-0.5-4
					l12.9-0.5L-43.7,62.8z"/>
			</g>
		</g>
	</g>
	<g>
		<g transform="translate(323.171069, 352.838371)">
			<g>
				<path class="st2" d="M-41.1,82.8v20.5l0.5,7.4l3.5,0.5l0.5,4h-16.9l0.5-4l3.5-0.5l0.5-7.4V82.8l-0.5-6.9l-3.5-0.5l-0.5-4
					l12.9-0.5L-41.1,82.8z M-49,63.3v-7.9h7.9v7.9H-49z"/>
			</g>
		</g>
	</g>
	<g>
		<g transform="translate(348.388713, 352.838371)">
			<g>
				<path class="st2" d="M-28.5,114.2h-11.7c-2.7,2-4.1,4.5-4.1,7.3c0,4.5,3.9,6.7,11.7,6.7c3.4,0,6.3-0.6,8.8-1.9
					c3.1-1.6,4.7-3.9,4.7-6.9c0-2-1-3.5-2.9-4.4C-23,114.4-25.1,114.2-28.5,114.2z M-34.9,108.2h5c6.1,0,10.1,0.3,12.2,1
					c4.2,1.4,6.4,4.4,6.4,9c0,4.8-2.4,8.4-7.2,10.9c-3.8,2-8.3,3-13.6,3c-4.5,0-8.6-0.5-12.1-1.7c-5.3-1.6-7.9-4.1-7.9-7.6
					c0-3.9,2.9-7,8.8-9.3c-3-1.3-4.5-3.3-4.5-5.9c0-1.8,0.9-3.4,2.6-4.8c0.9-0.7,2.6-1.7,5-3.1c-2.8-1.1-4.9-3-6.5-5.6
					c-1.6-2.5-2.4-5.2-2.4-8.3c0-4.6,1.4-8.3,4.3-11.2c2.9-2.9,7-4.3,12.4-4.3c3,0,5.7,0.5,8.1,1.7l15.4-1.2l-2.5,5.9l-8.7-1.5
					c2.5,3,3.8,6.5,3.8,10.5c0,4.3-1.5,8-4.5,11.1c-2.8,2.9-6.9,4.3-12.2,4.3c-1.8,0-3.3-0.2-4.4-0.5c-2.3,1.5-3.4,3.1-3.4,4.8
					c0,1.3,0.7,2.1,2.1,2.5C-38,108.1-36.7,108.2-34.9,108.2z M-33.1,73.8c-2.9,0-5,1.4-6.4,4.1c-1.2,2.1-1.7,4.8-1.7,8
					c0,3.3,0.6,5.9,1.9,8c1.5,2.5,3.7,3.8,6.8,3.8c3.7,0,6.3-2.1,7.6-6.5c0.5-1.6,0.7-3.4,0.7-5.5C-24.2,77.8-27.2,73.8-33.1,73.8z"
					/>
			</g>
		</g>
	</g>
	<g>
		<g transform="translate(393.361408, 352.838371)">
			<g>
				<path class="st2" d="M-41.7,103.2V62.8l-0.5-6.9l-3.5-0.5l-0.5-4l12.9-0.5l-0.5,11.9v14.6l-0.5,2.1h0.5c1.6-2.6,3.9-4.8,6.9-6.5
					c3-1.8,5.9-2.6,8.8-2.6c4,0,7.1,1.4,9.3,4.1c1.9,2.4,2.9,6,2.9,10.8v17.9l0.5,7.4l3.5,0.5l0.5,4h-16.9l0.5-4l3.5-0.5l0.5-7.4
					V86.6c0-3.5-0.3-5.9-0.9-7.2c-1-2-3-3.1-6.1-3.1c-2.4,0-4.7,0.7-7.1,2.1c-1.5,0.9-3.4,2.5-5.9,4.8v20l0.5,7.4l3.5,0.5l0.5,4
					h-16.9l0.5-4l3.5-0.5L-41.7,103.2z"/>
			</g>
		</g>
	</g>
	<g>
		<g transform="translate(442.524566, 352.838371)">
			<g>
				<path class="st2" d="M-36,100.4V75.8h-5.5v-4.5h5.5v-8l7.9-2v10h11.2v4.5H-28v25.7c0,3.1,0.4,5.4,1.1,6.9
					c1.1,2.2,2.8,3.3,5.2,3.3c1.4,0,3.1-0.4,4.9-1.2v4.5c-1.8,0.8-3.9,1.2-6.2,1.2c-4.6,0-8-1.5-10.4-4.4c-1.2-1.4-1.9-3.2-2.2-5.4
					C-35.9,105.3-36,103.3-36,100.4z"/>
			</g>
		</g>
	</g>
</g>
<g>
	<g>
		<path class="st2" d="M125.9,179.7c18.4,6.9,46.2,17.4,47.9,18.1c0.2,0.1,0.4,0.2,0.6,0.2c0.7,0,1.2-0.6,1.2-1.2
			c0-0.9,0-0.9-8.3-4.1c-4.5-1.7-10.5-4-16.5-6.3c-12-4.5-24.1-9-24.1-9c-0.1-0.1-0.3-0.1-0.4-0.1c-0.5,0-1,0.3-1.1,0.8
			C124.9,178.7,125.2,179.4,125.9,179.7z"/>
	</g>
	<g>
		<path class="st2" d="M89.3,208.6c-0.1,0-0.1,0-0.2,0c-0.7,0.1-1.1,0.7-1,1.4l5.3,36.4c0.1,0.7,0.7,1.1,1.4,1
			c0.7-0.1,1.1-0.7,1-1.4l-5.3-36.4C90.5,209.1,89.9,208.6,89.3,208.6z"/>
	</g>
	<g>
		<path class="st2" d="M14.3,95.2c0.5,1.2,11.7,29,24,43.6c-8.2,10.4-11.2,20.2-7.2,23.8l37.5,34.2l0,0l0,0l10.4,9.5
			c0.8,0.7,1.9,1.1,3.2,1c5-0.2,13.9-6.4,22.2-15.4c4.9-5.3,8.8-10.9,11.2-15.7c2.6-5.3,2.9-9.1,0.9-10.9l0,0l-47.9-43.7
			c-0.8-0.7-2-1.4-4.1-1.4c-0.1,0-0.1,0-0.2,0c0.6-13-0.8-26-0.8-26.1c-0.1-0.6-0.6-1.1-1.2-1.1l-46.7,0.6c-0.4,0-0.8,0.2-1,0.5
			C14.2,94.4,14.1,94.8,14.3,95.2z M82.4,171.8c4.7-5.2,9.7-9.4,14.1-12.1c4.5-2.7,7.1-2.9,7.8-2.2l0,0l7.5,6.8
			c-0.1,0-0.2,0-0.4,0.1c-5.2,1.3-13.2,7.2-20.5,15.2c-7.4,8.1-12.4,16.4-13.2,21.8l0,0c0,0.1,0,0.3,0,0.4l-7.5-6.9
			C68.2,193.1,71.9,183.4,82.4,171.8z M113.3,175.1c-2.2,4.6-6.1,10-10.8,15.1c-8.6,9.4-16.8,14.5-20.4,14.6H82
			c-0.6,0-1-0.1-1.3-0.4c-0.4-0.3-0.5-1-0.5-1.9c5.2-1.7,12.7-7.4,19.6-14.9c7-7.7,11.9-15.5,13.1-20.9c0.9-0.1,1.6,0,1.9,0.3l0,0
			C115.5,167.8,115.6,170.3,113.3,175.1z M66.8,123.4l34.6,31.6c-1.8,0.4-3.8,1.3-6.2,2.7c-4.6,2.8-9.8,7.2-14.6,12.5
			c-6.9,7.6-12.7,16.5-13.3,22.1l-34.6-31.6l0,0c-2.4-2.2-0.3-10.4,7.2-20.1c4.3,4.7,8.4,7,12,7c7-0.1,11.1-8.5,12.1-25
			C65.3,122.6,66.2,122.8,66.8,123.4z M61.1,95.4c0.3,3.5,1.2,14.9,0.6,25.9c0,0.1,0,0.1,0,0.2c-0.6,10.8-2.8,23.6-9.8,23.7
			c-3.2,0-6.9-2.4-11.1-7.2l0,0C30.2,125.9,20,102.4,17.3,96L61.1,95.4z"/>
	</g>
	<g>
		<path class="st2" d="M51,139.9c2.9,0,5.3-2.4,5.2-5.4c0-2.9-2.4-5.3-5.4-5.2c-2.9,0-5.3,2.4-5.2,5.4
			C45.7,137.6,48.1,139.9,51,139.9z M50.9,131.8c1.6,0,2.9,1.2,2.9,2.8s-1.2,2.9-2.8,2.9s-2.9-1.2-2.9-2.8
			C48.1,133.1,49.4,131.8,50.9,131.8z"/>
	</g>
	<g>
		<path class="st2" d="M116.4,186.6c-0.3,0.6-0.1,1.3,0.5,1.7l44.6,23c0.6,0.3,1.3,0.1,1.7-0.5c0.3-0.6,0.1-1.3-0.5-1.7l-44.6-23
			c-0.2-0.1-0.4-0.1-0.6-0.1C117,185.9,116.6,186.2,116.4,186.6z"/>
	</g>
	<g>
		<path class="st2" d="M100.4,203.9c-0.1,0-0.3,0-0.4,0.1c-0.6,0.3-0.9,1-0.7,1.6c5.1,12.8,12.9,32.3,13.4,33.8c0.1,0.6,0.6,1,1.2,1
			c0.7,0,1.2-0.6,1.2-1.2c0-0.3,0-0.8-13.5-34.5C101.4,204.2,100.9,203.9,100.4,203.9z"/>
	</g>
	<g>
		<path class="st2" d="M109.8,196c-0.2-0.3-0.6-0.4-0.9-0.4s-0.6,0.1-0.8,0.3c-0.5,0.5-0.5,1.2,0,1.7l40.2,41.8
			c0.5,0.5,1.3,0.5,1.7,0c0.5-0.5,0.5-1.3,0-1.7L109.8,196z"/>
	</g>
</g>
<path class="st2" d="M87.3,315.5v-7.2l0,0h-5.2v7.2c0,0-0.1,3.5-2.9,3.5s-2.8-3.5-2.8-3.5v-7.2l0,0H65.6v-1.7c0,0-0.3-3,1.3-4.5
	c1.6-1.6,4.3-1.5,4.3-1.5h41.3v-0.1v19.3l0,0l0,0h-1.7c0,0-3,0.3-3-3c0-3.4,0-4,0-4s0.1-2-1.1-3.2s-4.1-1.3-4.1-1.3H91.8l0,0V323
	l0,0h4.9l0,0v-11.7v-0.2h1.7c0,0,4.2-0.3,4.2,3.3s0,8.8,0,8.8l0,0h14.8l0,0c0,0,0-4.1,0-6c0-1.6,1.4,0.3,1.4,0.3l3.5,5.7l0,0h5.6
	l0,0l-5.6-9.3l0,0l4.6-5.5l0,0h-5.2l0,0l-2.8,3.5c0,0-1.4,1.8-1.4,0.2c0-1.6,0-14.5,0-14.5l0,0H67.2c0,0-2.3-0.1-4.5,2.1
	s-2,5.9-2,5.9v2.9H49.4v-19.2h83.9v61.4H49.4V311h11.3l0,0v12.1h-0.1h4.9l0,0V311h5.6v5.7c0,0,0.1,6.6,8.1,6.6
	C87.2,323.4,87.3,315.5,87.3,315.5L87.3,315.5L87.3,315.5z M89,315.6c0,0-0.4,9.5-9.8,9.5s-9.8-8.4-9.8-8.4v-4l0,0h-2.2v12.1l0,0H59
	v-12.1l0,0h-7.9v35.9h80.5v-58H51.1v15.8H59v-1.2c0,0-0.1-4.2,2.6-6.8c2.7-2.7,5.7-2.8,5.7-2.8h50.1h1.7v13l0,0l1.8-2.2l0,0h9.6
	l-6.1,7.4l0,0l6.6,10.8l0,0h-9.6l0,0l-2.2-3.7l0,0v3.7H101l0,0c0,0,0-8.7,0-10.5c0-1.9-2.5-1.6-2.5-1.6v12.1l0,0h-8.3l0,0v-18.2l0,0
	h12.4c0,0,3.4-0.2,5.2,1.7c1.8,1.8,1.6,4.5,1.6,4.5s0,2.4,0,4s1.3,1.3,1.3,1.3V302l0,0H71.1c0,0-2.2-0.1-3.1,0.8s-0.8,2.4-0.8,2.4
	v1.2l0,0H78v0.2v8.8c0,0-0.1,1.8,1.2,1.8s1.2-1.8,1.2-1.8v-8.8v-0.2H89l0,0v8.9V315.6L89,315.6L89,315.6z"/>
<g id="XMLID_241_">
	<g id="XMLID_322_">
		<path id="XMLID_323_" class="st2" d="M307.4,59.4c-10.8,0-23.7,12.9-23.7,23.7s12.9,23.7,23.7,23.7c10.8,0,23.7-12.9,23.7-23.7
			S318.2,59.4,307.4,59.4z M295,87c-0.4-1.3-0.6-2.6-0.6-3.9c0-0.5,0-1,0.1-1.5h7l1.3-7.6h6.5l-1.3,7.6h8.8l-1,5.8H307l-1.5,8.6
			c-2-0.3-3.9-1.1-5.6-2.2l-0.5-0.3l1.1-6h-5.3L295,87z M307.4,101c-3.2,0-6.3-0.9-8.9-2.4l0.7-3.9c2.3,1.6,5.2,2.6,8.2,2.6
			c7.9,0,14.2-6.4,14.2-14.2c0-1.3-0.2-2.5-0.5-3.7h-11.5l1-5.4h7.7c-2.6-3.1-6.5-5.1-10.9-5.1c-7.9,0-14.2,6.4-14.2,14.2
			c0,1.5,0.2,2.9,0.7,4.3h-3.8c-0.3-1.4-0.5-2.8-0.5-4.3c0-9.9,8-17.9,17.9-17.9s17.9,8,17.9,17.9S317.2,101,307.4,101z"/>
	</g>
	<g id="XMLID_242_">
		<g id="XMLID_243_">
			<g id="XMLID_286_">
				<path id="XMLID_320_" class="st2" d="M241.2,123.7l-1.2,6.6h-6.7l3.1-17.5h20l-0.8,4.5h-13.3l-0.4,2.1h7.1l-0.8,4.3
					C248.2,123.7,241.2,123.7,241.2,123.7z"/>
				<path id="XMLID_317_" class="st2" d="M268.7,130.3l0.8-4.8c0.1-0.4,0-0.7-0.2-0.9c-0.2-0.2-0.6-0.3-1.3-0.3h-6l-1.1,6h-6.7
					l3.1-17.5h14.8c1.2,0,2.2,0.1,3,0.2s1.3,0.4,1.7,0.7c0.4,0.3,0.6,0.8,0.7,1.3s0,1.2-0.1,2l-0.5,2.7c-0.1,0.8-0.4,1.4-0.8,1.8
					s-0.9,0.7-1.5,0.9c0.5,0.1,0.9,0.4,1.2,0.8c0.3,0.4,0.4,1,0.3,1.7l-0.9,5.4L268.7,130.3L268.7,130.3z M270.8,118.3
					c0.1-0.3,0-0.6-0.1-0.8c-0.1-0.2-0.5-0.3-1-0.3h-6.4l-0.5,3.1h6.4c0.6,0,1-0.1,1.1-0.3c0.2-0.2,0.3-0.5,0.4-0.9L270.8,118.3z"/>
				<path id="XMLID_315_" class="st2" d="M276.9,130.3l3.1-17.5h6.7l-3.1,17.5H276.9z"/>
				<path id="XMLID_313_" class="st2" d="M291,130.3l2.3-13.1H287l0.8-4.5h19.4l-0.8,4.5H300l-2.3,13.1H291z"/>
				<path id="XMLID_311_" class="st2" d="M304.8,130.3l0.8-4.5h13.8c0.4,0,0.6-0.1,0.7-0.3c0.1-0.2,0.3-0.5,0.3-0.9
					c0.1-0.4,0-0.6-0.1-0.8c-0.1-0.2-0.3-0.2-0.6-0.2H311c-1.7,0-2.9-0.3-3.6-1c-0.7-0.6-1-1.5-0.8-2.7l0.6-3.2
					c0.1-0.7,0.3-1.4,0.6-1.9c0.3-0.5,0.6-1,1.1-1.3s1.1-0.6,1.9-0.7s1.8-0.2,2.9-0.2h13.4l-0.8,4.4h-12.1c-0.4,0-0.6,0.1-0.7,0.3
					c-0.1,0.2-0.2,0.4-0.3,0.8c-0.1,0.4,0,0.6,0.1,0.8c0.1,0.2,0.3,0.3,0.7,0.3h8.6c1.8,0,3,0.4,3.7,1.1s0.9,1.8,0.7,3.1l-0.5,2.7
					c-0.1,0.7-0.3,1.3-0.6,1.9c-0.3,0.5-0.7,1-1.2,1.3s-1.1,0.6-1.8,0.8c-0.7,0.2-1.6,0.3-2.6,0.3h-15.5V130.3z"/>
				<path id="XMLID_309_" class="st2" d="M333.8,130.3c-1.3,0-2.3-0.1-3.1-0.2c-0.8-0.1-1.5-0.3-2-0.6s-0.8-0.7-0.9-1.3
					c-0.1-0.5-0.1-1.2,0-2.1l1.6-9.1c0.1-0.8,0.4-1.5,0.7-2.1c0.3-0.5,0.8-1,1.4-1.3s1.3-0.5,2.2-0.6c0.9-0.1,1.9-0.2,3.2-0.2h13.5
					l-0.8,4.5H338c-0.7,0-1.2,0.1-1.5,0.3c-0.3,0.2-0.5,0.5-0.6,0.9l-1.1,6.2c-0.1,0.8,0.4,1.2,1.7,1.2H348l-0.8,4.5L333.8,130.3
					L333.8,130.3z"/>
				<path id="XMLID_307_" class="st2" d="M363.1,130.3l1.2-6.6h-7.6l-1.2,6.6h-6.7l3.1-17.5h6.7l-1.2,6.5h7.6l1.2-6.5h6.7l-3.1,17.5
					H363.1z"/>
				<path id="XMLID_287_" class="st2" d="M371.7,130.3l3.1-17.5h6.7l-3.1,17.5H371.7z"/>
			</g>
			<g id="XMLID_256_">
				<path id="XMLID_284_" class="st2" d="M251.3,138.7l-0.8-0.2c-0.3-0.1-0.5-0.2-0.6-0.4s-0.1-0.4-0.1-0.8c0-0.2,0.1-0.4,0.2-0.6
					c0.1-0.1,0.2-0.3,0.3-0.3c0.1-0.1,0.3-0.1,0.4-0.1s0.4,0,0.6,0c0.5,0,0.9,0,1.2,0.1l-0.1,0.4c-0.4,0-0.8,0-1.2,0
					c-0.2,0-0.3,0-0.4,0c-0.1,0-0.2,0-0.3,0.1c-0.1,0-0.2,0.1-0.2,0.2c0,0.1-0.1,0.2-0.1,0.4s0,0.4,0,0.5c0.1,0.1,0.2,0.2,0.4,0.2
					l0.8,0.2c0.3,0.1,0.5,0.2,0.6,0.4s0.1,0.4,0,0.8c-0.1,0.5-0.2,0.8-0.5,0.9c-0.2,0.1-0.6,0.2-1.1,0.2c-0.4,0-0.9,0-1.3-0.1
					l0.1-0.4c0.7,0,1.1,0,1.3,0c0.3,0,0.6,0,0.7-0.1c0.1-0.1,0.2-0.3,0.3-0.5c0-0.2,0-0.4,0-0.5
					C251.6,138.8,251.5,138.7,251.3,138.7z"/>
				<path id="XMLID_282_" class="st2" d="M264.1,136.3l-1.6,4c0,0.1-0.1,0.2-0.2,0.2h-0.6c-0.1,0-0.2-0.1-0.2-0.2l-0.1-3.1
					c0-0.1,0-0.3,0-0.5h-0.1l-0.2,0.5l-1.2,3.1c0,0.1-0.1,0.2-0.2,0.2H259c-0.1,0-0.1,0-0.1,0s0-0.1-0.1-0.1l-0.1-4h0.6l0.1,3.3
					c0,0,0,0.2,0,0.5h0.1c0.1-0.2,0.1-0.4,0.2-0.5l1.2-3.1c0-0.1,0.1-0.2,0.2-0.2h0.6c0.1,0,0.2,0.1,0.2,0.2l0.1,3.1
					c0,0.2,0,0.4,0,0.5h0.2c0.1-0.2,0.1-0.4,0.2-0.5l1.2-3.3L264.1,136.3L264.1,136.3z"/>
				<path id="XMLID_280_" class="st2" d="M270,140.5h-0.5l0.7-4.2h0.5L270,140.5z"/>
				<path id="XMLID_278_" class="st2" d="M278.3,138.7l-0.8-0.2c-0.3-0.1-0.5-0.2-0.6-0.4s-0.1-0.4-0.1-0.8c0-0.2,0.1-0.4,0.2-0.6
					c0.1-0.1,0.2-0.3,0.3-0.3c0.1-0.1,0.3-0.1,0.4-0.1s0.4,0,0.6,0c0.5,0,0.9,0,1.2,0.1l-0.1,0.4c-0.4,0-0.8,0-1.2,0
					c-0.2,0-0.3,0-0.4,0s-0.2,0-0.3,0.1c-0.1,0-0.2,0.1-0.2,0.2c0,0.1-0.1,0.2-0.1,0.4s0,0.4,0,0.5c0.1,0.1,0.2,0.2,0.4,0.2l0.8,0.2
					c0.3,0.1,0.5,0.2,0.6,0.4s0.1,0.4,0,0.8c-0.1,0.5-0.2,0.8-0.5,0.9c-0.2,0.1-0.6,0.2-1.1,0.2c-0.4,0-0.9,0-1.3-0.1l0.1-0.4
					c0.7,0,1.1,0,1.3,0c0.3,0,0.6,0,0.7-0.1s0.2-0.3,0.3-0.5c0-0.2,0-0.4,0-0.5C278.6,138.8,278.5,138.7,278.3,138.7z"/>
				<path id="XMLID_276_" class="st2" d="M287.1,138.7l-0.8-0.2c-0.3-0.1-0.5-0.2-0.6-0.4s-0.1-0.4-0.1-0.8c0-0.2,0.1-0.4,0.2-0.6
					c0.1-0.1,0.2-0.3,0.3-0.3c0.1-0.1,0.3-0.1,0.4-0.1s0.4,0,0.6,0c0.5,0,0.9,0,1.2,0.1l-0.1,0.4c-0.4,0-0.8,0-1.2,0
					c-0.2,0-0.3,0-0.4,0s-0.2,0-0.3,0.1c-0.1,0-0.2,0.1-0.2,0.2c0,0.1-0.1,0.2-0.1,0.4s0,0.4,0,0.5c0.1,0.1,0.2,0.2,0.4,0.2l0.8,0.2
					c0.3,0.1,0.5,0.2,0.6,0.4s0.1,0.4,0,0.8c-0.1,0.5-0.2,0.8-0.5,0.9c-0.2,0.1-0.6,0.2-1.1,0.2c-0.4,0-0.9,0-1.3-0.1l0.1-0.4
					c0.7,0,1.1,0,1.3,0c0.3,0,0.6,0,0.7-0.1s0.2-0.3,0.3-0.5c0-0.2,0-0.4,0-0.5C287.5,138.8,287.3,138.7,287.1,138.7z"/>
				<path id="XMLID_272_" class="st2" d="M303.4,138.3L303.4,138.3c0.3,0.1,0.5,0.2,0.6,0.3c0.1,0.2,0.1,0.4,0.1,0.8
					c-0.1,0.4-0.2,0.7-0.4,0.9c-0.2,0.2-0.6,0.2-1.1,0.2c-0.7,0-1.2,0-1.5,0l0.7-4.2c0.3,0,0.8,0,1.4,0c0.5,0,0.9,0.1,1,0.2
					c0.2,0.2,0.2,0.4,0.2,0.9c-0.1,0.3-0.1,0.5-0.3,0.7C303.8,138.2,303.6,138.3,303.4,138.3z M301.8,138.5l-0.3,1.5
					c0.2,0,0.5,0,0.9,0c0.3,0,0.6,0,0.7-0.1s0.2-0.3,0.3-0.6c0.1-0.3,0-0.5-0.1-0.6s-0.3-0.2-0.7-0.2L301.8,138.5L301.8,138.5z
					 M301.9,138.1h0.9c0.3,0,0.5-0.1,0.7-0.2c0.1-0.1,0.2-0.3,0.3-0.6c0-0.3,0-0.5-0.1-0.6s-0.3-0.1-0.7-0.1h-0.8L301.9,138.1z"/>
				<path id="XMLID_270_" class="st2" d="M310.7,140.5h-0.5l0.7-4.2h0.5L310.7,140.5z"/>
				<path id="XMLID_268_" class="st2" d="M321.1,136.3l-0.7,4c0,0.1-0.1,0.2-0.2,0.2h-0.5c-0.1,0-0.2-0.1-0.2-0.2l-0.9-3
					c-0.1-0.3-0.1-0.5-0.1-0.5h-0.1c0,0.2,0,0.3-0.1,0.5l-0.6,3.1h-0.5l0.7-4c0-0.1,0.1-0.2,0.2-0.2h0.5c0.1,0,0.2,0.1,0.2,0.2
					l0.9,2.9c0.1,0.2,0.1,0.4,0.2,0.6h0.1c0-0.2,0.1-0.4,0.1-0.6l0.5-3H321.1z"/>
				<path id="XMLID_265_" class="st2" d="M326.9,140.5l0.7-4.2c0.5,0,1-0.1,1.5-0.1c0.6,0,1,0.2,1.2,0.5s0.2,0.9,0.1,1.7
					s-0.4,1.4-0.7,1.7c-0.3,0.3-0.7,0.5-1.3,0.5C327.9,140.5,327.4,140.5,326.9,140.5z M328.1,136.7l-0.6,3.3c0.4,0,0.7,0,1,0
					c0.4,0,0.7-0.1,0.9-0.4c0.2-0.2,0.4-0.7,0.5-1.3s0.1-1.1,0-1.3s-0.4-0.4-0.8-0.4C328.8,136.7,328.4,136.7,328.1,136.7z"/>
				<path id="XMLID_263_" class="st2" d="M336.9,140.5h-0.5l0.7-4.2h0.5L336.9,140.5z"/>
				<path id="XMLID_261_" class="st2" d="M347.3,136.3l-0.7,4c0,0.1-0.1,0.2-0.2,0.2h-0.5c-0.1,0-0.2-0.1-0.2-0.2l-0.9-3
					c-0.1-0.3-0.1-0.5-0.1-0.5h-0.1c0,0.2,0,0.3-0.1,0.5l-0.6,3.1h-0.5l0.7-4c0-0.1,0.1-0.2,0.2-0.2h0.5c0.1,0,0.2,0.1,0.2,0.2
					l0.9,2.9c0.1,0.2,0.1,0.4,0.2,0.6h0.1c0-0.2,0.1-0.4,0.1-0.6l0.5-3H347.3z"/>
				<path id="XMLID_259_" class="st2" d="M355.5,140.5v-0.4c-0.4,0.3-0.9,0.5-1.3,0.5c-0.5,0-0.8-0.2-0.9-0.5s-0.2-0.9,0-1.7
					c0.1-0.8,0.4-1.4,0.7-1.7c0.3-0.3,0.8-0.5,1.4-0.5c0.4,0,0.8,0,1.1,0.1l-0.1,0.4c-0.3,0-0.7,0-1.1,0c-0.3,0-0.6,0-0.7,0.1
					c-0.2,0.1-0.3,0.2-0.5,0.5c-0.1,0.2-0.2,0.6-0.3,1.1c-0.1,0.6-0.1,1,0,1.3c0.1,0.2,0.3,0.4,0.6,0.4c0.3,0,0.7-0.1,1.1-0.4
					l0.3-1.6h0.5l-0.4,2.4L355.5,140.5L355.5,140.5z"/>
				<path id="XMLID_257_" class="st2" d="M364.1,138.7l-0.8-0.2c-0.3-0.1-0.5-0.2-0.6-0.4s-0.1-0.4-0.1-0.8c0-0.2,0.1-0.4,0.2-0.6
					c0.1-0.1,0.2-0.3,0.3-0.3c0.1-0.1,0.3-0.1,0.4-0.1s0.4,0,0.6,0c0.5,0,0.9,0,1.2,0.1l-0.1,0.4c-0.4,0-0.8,0-1.2,0
					c-0.2,0-0.3,0-0.4,0s-0.2,0-0.3,0.1c-0.1,0-0.2,0.1-0.2,0.2c0,0.1-0.1,0.2-0.1,0.4s0,0.4,0,0.5c0.1,0.1,0.2,0.2,0.4,0.2l0.8,0.2
					c0.3,0.1,0.5,0.2,0.6,0.4s0.1,0.4,0,0.8c-0.1,0.5-0.2,0.8-0.5,0.9c-0.2,0.1-0.6,0.2-1.1,0.2c-0.4,0-0.9,0-1.3-0.1l0.1-0.4
					c0.7,0,1.1,0,1.3,0c0.3,0,0.6,0,0.7-0.1s0.2-0.3,0.3-0.5c0-0.2,0-0.4,0-0.5C364.4,138.8,364.3,138.7,364.1,138.7z"/>
			</g>
		</g>
	</g>
</g>
<g>
	<path class="st2" d="M343.8,346.2l-0.1,3.3v8.4l0.1,1.8l2.1,0.1l0.1,1h-6.5l0.1-1l2.1-0.1l0.1-1.8v-10.3l-2.2-0.1l-0.1-1
		L343.8,346.2z"/>
	<path class="st2" d="M356.5,346.2l-0.1,3.3v8.4l0.1,1.8l2.1,0.1l0.1,1h-6.5l0.1-1l2.1-0.1l0.1-1.8v-10.3l-2.2-0.1l-0.1-1
		L356.5,346.2z"/>
	<path class="st2" d="M363.8,360.8v-2.4h2.4v2.4H363.8z"/>
	<path class="st2" d="M378.1,356.4l-1.2,3.3l1,0.1l0.1,1h-3.2l0.1-1l0.6-0.1l1-2L381,346h1.2l5.5,13.6l0.6,0.1l0.1,1h-4l0.1-1l1-0.1
		l-1.3-3.3H378.1z M378.5,355.4h5.3l-2.7-6.8L378.5,355.4z"/>
	<path class="st2" d="M393.1,351.6l-0.1,0.5h0.1c0.9-1.5,2.2-2.2,3.7-2.2c1.3,0,2.4,0.6,3.1,1.7c0.6,0.9,0.9,2.1,0.9,3.6
		c0,1.6-0.3,2.9-1,3.9c-0.8,1.3-1.9,1.9-3.4,1.9c-1.3,0-2.4-0.5-3.2-1.4H393l0.2,4l0.8,0.1l0.1,1h-4.1l0.1-1l0.8-0.1l0.1-1.8v-8.8
		l-0.1-1.7l-0.8-0.1l-0.1-1l3-0.1V351.6z M393.1,353.1v5.4c0.9,0.8,1.9,1.2,3,1.2c0.9,0,1.6-0.5,2.1-1.4c0.4-0.7,0.5-1.6,0.5-2.7
		c0-2.8-0.9-4.2-2.6-4.2C395,351.3,393.9,351.9,393.1,353.1z"/>
	<path class="st2" d="M410.5,350l-0.1,2.6l-1-0.1l-0.1-1c-0.6,0-1.2,0.1-1.6,0.4c-0.4,0.2-0.8,0.5-1.3,1v4.8l0.1,1.8l1.1,0.1l0.1,1
		h-4.3l0.1-1l0.8-0.1l0.1-1.8v-5l-0.1-1.7l-0.8-0.1l-0.1-1l3-0.1v1.6l-0.1,0.5h0.1c0.3-0.7,0.8-1.2,1.5-1.6c0.6-0.4,1.3-0.6,2-0.6
		C410.1,349.9,410.4,349.9,410.5,350z"/>
	<path class="st2" d="M415.5,352.9v5l0.1,1.8l0.8,0.1l0.1,1h-4.1l0.1-1l0.8-0.1l0.1-1.8v-5l-0.1-1.7l-0.8-0.1l-0.1-1l3.1-0.1
		L415.5,352.9z M413.5,348.2v-1.9h1.9v1.9H413.5z"/>
	<path class="st2" d="M422.2,348.1v9.8l0.1,1.8l0.8,0.1l0.1,1h-4.1l0.1-1l0.8-0.1l0.1-1.8v-9.8l-0.1-1.7l-0.8-0.1l-0.1-1l3.1-0.1
		L422.2,348.1z"/>
	<path class="st2" d="M344.2,378.4l-0.7,0.5c-1,0.7-1.7,1.3-2.1,1.7c-0.7,0.8-1.1,1.6-1.1,2.4h6.7v1.7h-8.6v-1
		c0.5-1.5,1.4-3,2.8-4.3l0.7-0.6c1.1-1,1.8-1.7,2.1-2.2c0.7-0.9,1.1-1.8,1.1-2.8c0-0.9-0.2-1.6-0.7-2.1c-0.5-0.6-1.2-0.9-2-0.9
		c-1,0-1.8,0.4-2.6,1.1l-0.1,1l-1,0.1l-0.1-2.3c1.5-0.6,2.8-1,3.9-1c1.3,0,2.4,0.3,3.2,1c0.9,0.7,1.3,1.7,1.3,3c0,1-0.3,1.9-0.8,2.6
		C345.8,377.1,345.1,377.8,344.2,378.4z"/>
	<path class="st2" d="M355.5,385.1c-1.7,0-3-0.9-4-2.6c-0.7-1.3-1.1-3-1.1-5c0-1.9,0.3-3.5,1-4.8c1-1.9,2.3-2.8,4.1-2.8
		c1.7,0,3,0.9,4,2.6c0.7,1.3,1.1,3,1.1,5c0,2-0.3,3.6-1,4.9C358.6,384.2,357.3,385.1,355.5,385.1z M355.5,384.2c1.2,0,2-0.9,2.5-2.6
		c0.3-1.1,0.5-2.4,0.5-4c0-1.6-0.2-3-0.5-4.1c-0.5-1.7-1.3-2.6-2.5-2.6c-1.2,0-2,0.9-2.5,2.6c-0.3,1.1-0.5,2.4-0.5,4.1
		c0,1.6,0.2,2.9,0.5,4C353.5,383.3,354.3,384.2,355.5,384.2z"/>
	<path class="st2" d="M369.5,378.4l-0.7,0.5c-1,0.7-1.7,1.3-2.1,1.7c-0.7,0.8-1.1,1.6-1.1,2.4h6.7v1.7h-8.6v-1
		c0.5-1.5,1.4-3,2.8-4.3l0.7-0.6c1.1-1,1.8-1.7,2.1-2.2c0.7-0.9,1.1-1.8,1.1-2.8c0-0.9-0.2-1.6-0.7-2.1c-0.5-0.6-1.2-0.9-2-0.9
		c-1,0-1.8,0.4-2.6,1.1l-0.1,1l-1,0.1l-0.1-2.3c1.5-0.6,2.8-1,3.9-1c1.3,0,2.4,0.3,3.2,1c0.9,0.7,1.3,1.7,1.3,3c0,1-0.3,1.9-0.8,2.6
		C371.1,377.1,370.4,377.8,369.5,378.4z"/>
	<path class="st2" d="M381.9,380.7h-6.5v-1l7.2-9.6h1.2l-0.1,3.4v5.8h1.9v1.4h-1.9v1.2l0.1,1.8l0.8,0.1l0.1,1h-4.2l0.1-1l1.1-0.1
		l0.1-1.8V380.7z M377,379.2h4.9v-6.6L377,379.2z"/>
</g>
</svg>
